<svg xmlns="http://www.w3.org/2000/svg" viewBox="5 49.4 240.5 103.6" enable-background="new 5 49.4 240.5 103.6"><path opacity=".3" fill="#fff" enable-background="new" d="M139.5 83.1c6.8-1 10.8 2.6 13.6 6.8 6-2.9 12.8 1.7 12.8 9.2 0 5.2-3.5 9.5-7.9 10.1-4.4.6-9.8 0-15.1 0h-30.1c-5.3 0-10.7.4-15.1 0-7-.7-11.6-7-11.8-14-.3-8.5 5.8-15.9 14.4-14.9 3.7-6.9 8.8-12.5 17.6-13.2 11.1-.9 18.5 7.3 21.6 16z"/><path opacity=".18" fill="#fff" enable-background="new" d="M129.9 113.2c.5 0 .7.3.4.7l-9.1 14.6c-.2.4-.1.7.4.7h8.3c.5 0 .6.3.3.6L108.9 153c-.3.3-.4.3-.2-.1l6.7-15.7c.2-.4-.1-.8-.5-.8h-6.6c-.5 0-.7-.3-.6-.8l8.5-21.7c.2-.4.7-.8 1.2-.8l12.5.1z"/><path opacity=".12" fill="#fff" enable-background="new" d="M108.5 113.4c.3 0 .4.2.3.4l-5.7 9.1c-.1.2 0 .4.3.4h5.2c.3 0 .4.2.2.4l-13.3 14.5c-.2.2-.3.2-.2-.1l4.2-9.8c.1-.3 0-.5-.3-.5h-4.1c-.3 0-.5-.2-.3-.5l5.3-13.5c.1-.3.4-.5.7-.5l7.7.1zM145.3 113.4c.3 0 .4.2.3.4l-5.7 9.1c-.1.2 0 .4.3.4h5.2c.3 0 .4.2.2.4l-13.3 14.5c-.2.2-.3.2-.2-.1l4.2-9.8c.1-.3 0-.5-.3-.5h-4.1c-.3 0-.5-.2-.3-.5l5.3-13.5c.1-.3.4-.5.7-.5l7.7.1z"/><path fill="#fff" d="M65.6 63.4v61h14v5.2h-14V153h-5.8v-23.4H17.1V124c4-4.5 8.1-9.4 12.2-14.7 4.1-5.2 8.1-10.5 11.8-15.8 3.8-5.3 7.2-10.6 10.4-15.8 3.2-5.2 5.8-9.9 7.9-14.3h6.2zm-41.8 61h36.1V73.6c-3 5.3-6.2 10.3-9.5 15.3-3.3 4.9-6.5 9.6-9.7 13.9-3.2 4.4-6.2 8.4-9.2 12-2.9 3.7-5.5 6.9-7.7 9.6zM214.2 63.4v61h14v5.2h-14V153h-5.8v-23.4h-42.8V124c4-4.5 8.1-9.4 12.2-14.7 4.1-5.2 8.1-10.5 11.8-15.8 3.8-5.3 7.2-10.6 10.4-15.8 3.2-5.2 5.8-9.9 7.9-14.3h6.3zm-41.9 61h36.1V73.6c-3 5.3-6.2 10.3-9.5 15.3-3.3 4.9-6.5 9.6-9.7 13.9-3.2 4.4-6.2 8.4-9.2 12-2.8 3.7-5.4 6.9-7.7 9.6z" opacity=".5"/></svg>