<svg width="128" height="128" viewBox="0 0 128 128" xmlns="http://www.w3.org/2000/svg"><title>github</title><desc>Created with Sketch.</desc><g fill="none" fill-rule="evenodd"><g fill="#f1f1ee"><g><g><path d="M64 34c-17.12 0-31 13.77-31 30.76 0 13.59 8.882 25.12 21.2 29.187 1.55.284 2.118-.668 2.118-1.48 0-.733-.03-3.157-.042-5.727-8.625 1.86-10.444-3.63-10.444-3.63-1.41-3.554-3.442-4.5-3.442-4.5-2.814-1.91.212-1.87.212-1.87 3.113.217 4.752 3.17 4.752 3.17 2.765 4.703 7.252 3.343 9.02 2.558.28-1.988 1.082-3.345 1.97-4.113-6.887-.778-14.125-3.416-14.125-15.202 0-3.358 1.21-6.102 3.193-8.256-.322-.775-1.383-3.903.3-8.14 0 0 2.604-.827 8.527 3.153 2.473-.682 5.125-1.023 7.76-1.036 2.634.012 5.288.354 7.765 1.036 5.917-3.98 8.517-3.154 8.517-3.154 1.687 4.237.626 7.366.304 8.14 1.988 2.155 3.19 4.9 3.19 8.257 0 11.814-7.25 14.416-14.154 15.177 1.112.955 2.102 2.827 2.102 5.696 0 4.116-.035 7.428-.035 8.44 0 .82.557 1.78 2.128 1.477C86.128 89.87 95 78.345 95 64.76 95 47.77 81.12 34 64 34zM44.973 78.776c-.08.228-.364.296-.623.14-.264-.15-.41-.46-.326-.688.08-.234.363-.3.626-.142.264.15.415.462.323.69zM45.896 79.922c-.162.148-.48.08-.696-.153-.223-.233-.264-.543-.1-.693.168-.147.476-.078.7.154.223.236.266.543.096.692zM46.85 80.952c-.193.12-.51.008-.705-.24-.194-.248-.194-.545.004-.663.195-.12.507-.013.706.232.193.252.193.55-.005.67zM48.917 82.9c-.147.166-.46.12-.687-.104-.233-.22-.298-.532-.152-.697.15-.166.462-.12.692.103.232.22.303.534.147.698zM51.98 83.7c-.116.253-.647.367-1.183.26-.536-.11-.885-.405-.777-.658.11-.254.645-.373 1.185-.258.535.11.886.4.774.657zM54 84.49c.013.276-.434.505-.987.51-.557.01-1.008-.215-1.013-.487 0-.28.437-.506.993-.513.554-.007 1.007.215 1.007.49zM56.993 84.376c.066.264-.32.535-.872.608-.54.07-1.044-.094-1.112-.356-.068-.27.325-.542.867-.613.553-.067 1.047.092 1.118.36z"/></g></g></g></g></svg>