<svg width="128" height="128" viewBox="0 0 128 128" xmlns="http://www.w3.org/2000/svg"><title>Artboard</title><desc>Created with Sketch.</desc><g fill="none" fill-rule="evenodd"><g fill="#f1f1ee"><g><path d="M66.74 59.862c-.864 0-1.597-.302-2.2-.906-.603-.603-.905-1.336-.905-2.198V39.17H46.047c-.862 0-1.595.302-2.198.905-.605.604-.906 1.337-.906 2.2v43.45c0 .863.3 1.596.905 2.2.602.603 1.335.905 2.197.905h35.176c.862 0 1.595-.302 2.198-.905.605-.604.906-1.337.906-2.2V59.863H66.74zm9.31 19.657c0 .3-.097.548-.29.742-.195.194-.443.29-.744.29h-22.76c-.303 0-.55-.096-.745-.29-.193-.194-.29-.442-.29-.743v-2.07c0-.303.097-.55.29-.745.195-.193.443-.29.745-.29h22.76c.302 0 .55.097.744.29.193.194.29.442.29.744v2.07zm0-8.278c0 .302-.097.55-.29.744-.195.193-.443.29-.744.29h-22.76c-.303 0-.55-.097-.745-.29-.193-.194-.29-.442-.29-.744v-2.07c0-.3.097-.55.29-.743.195-.195.443-.292.745-.292h22.76c.302 0 .55.097.744.29.193.195.29.443.29.745v2.07zM82.13 51.456L72.04 41.37c-1.077-1.08-2.5-1.78-4.267-2.103v16.456H84.23c-.324-1.767-1.024-3.19-2.1-4.267z"/></g></g></g></svg>