<svg id="Layer_1" xmlns="http://www.w3.org/2000/svg" viewBox="0 0 519.4 162.7"><style>.st0{fill:#bbb}.st1{fill:#81b4ff}.st2{fill:#2d6ebe}.st3{fill:#abecff}.st4{fill:#2682a1}.st5{fill:#5e9732}.st6{opacity:.4;fill:none;stroke:#2682a1;stroke-width:2;stroke-miterlimit:10;enable-background:new}.st7{fill:#34add6}.st8{fill:#00b6de}.st9{fill:#006837}.st10{opacity:.5;fill:#fff}.st11,.st12{opacity:.6;fill:#fff}.st12{opacity:.35}</style><path class="st0" d="M438.7 142.9c-.5-1.7.7-3.2.7-4.9 0-1.6-.4-3.3.1-4.8 1.1-3.3.5-6.7.6-10 .1-3.3.1-6.6 0-9.9-.1-3.1-.2-6.3-.8-9.3-.5-2.7-.8-5.4-1.4-8.1-.6-2.7-1.6-5.3-1.4-8.1-1.1-1.3-.3-2.9-.8-4.2-.6-1.4-.3-2.9-.7-4.2-1-3.3-.8-6.8-2-10.1-.5-1.4.3-3.1-.7-4.6-.4-.6 0-1.8-.4-2.4-.3-.4-1.7.1-2.3-.2-2-1-4.6-.2-6.3-1.9-.3-.3-.8-.3-1.2-.5-.5-.3-.8-.7-1.3-1.1.6-.1 1.1-.3 1.6-.3 1.3.1 1.3-.6 1.2-1.4-.1-.6-.6-1.1-.7-1.7-.1-.7-.4-.8-1.1-.9-2.3-.2-4.6-.4-6.9-.7-.5-.1-.9-.6-1.4-.9.3-.3.6-.7 1-.9.4-.2.8-.4 1.2-.5 2.6-.4 4.2-1.3 3.6-4-.2-.8.5-.7 1.1-.8 2.8-.8 4.9-2.5 7.8-3.3 2.7-.7 5.5-1.6 8.2-2.4h.4c2.4-.8 2.5-1.2.6-2.8-.7-.6-1.7-1.1-2.5-1.6-.5-.3-.6-.6.2-.7.6-.1 1.3-.6 1.9-.6 1.9.2 2.9-.2 2.6-2.1 0-.1.5-.4.7-.4.5 0 1.2-.3 1.4.5.1.3.5.7.8.7.8.1 1.7 0 2.5-.1.1 0 .2-.5.3-.8.3-.8-.9-2.3 1.2-2.4.1 0 .2-.3.2-.5.3-2.5.7-4.9.7-7.4.1-6.9 0-13.9 0-20.8V.2c0-.1.2-.2.2-.2.2.1.4.2.4.3v1.6c0 4.5.2 9-.1 13.5-.3 4.8.8 9.4.8 14.2 0 .8.5 1.5.7 2.3.2 1 .6 1 1.4.5.9-.6 1.5-.7 1.5.6 0 .1.1.2.2.2.9.2 1.9.1 2.6.5.7.4 1 1.3 1.6 1.9.2.2.8.2 1.3.2.9.1.9.6.5 1.1-.6.7-1.3 1.2-2 1.8-1.1 1-.8 1.7.7 2.2.8.3 1.7.4 2.6.7 2.4.7 5 1.1 7.2 2.1 2.5 1.2 5.3 1.4 7.7 2.8.8.5 1.3.6 1.2 1.5-.1.6-.1 1.3 0 1.9 0 .2.4.6.6.6 2.1-.2 3.8 1.2 5.9 1.3v.6c-3 .6-5.9 1.7-9.1 1.3-.8-.1-1.1.2-1 .9 0 .4.1.9 0 1.3-.1.5-.6 1.2-.4 1.5.3.4 1.1.6 1.7.8.3.1.8-.1 1.1 0 .2.1.4.5.4.7 0 .1-.2.5-.3.5-3.2.7-6.2 1.7-9.5 2-.8.1-1.9 0-2.3.4-.4.4 0 1.4-.8 1.9-.2.2 0 .8 0 1.2-.2 3-.5 6-.7 9 0 .2.1.5-.1.6-1.4 1.3-.4 2.8-.7 4.2-.3 1.4-.7 2.8-.7 4.2.1 2.8-1.3 5.5-.8 8.4 0 .1.1.3 0 .3-1.3 1.3-.5 2.8-.7 4.2-.2 1.5-.5 3-.7 4.5-.2 1.5.1 3-.6 4.6-.6 1.3 0 2.9-.1 4.4-.1 1.4-.6 2.8-.7 4.2-.1 3.7-.1 7.5 0 11.2.1 3.6-.3 7.3.6 10.9.6 2.2.1 4.7.1 7-6 .3-12.2.3-18.4.3zm16.5-49.1v1.4c0 .3.2.6.3.8.3-.3.7-.5 1-.8.1-.1.1-.2.1-.3.2-2 .5-4.1.7-6.1 0-.4-.2-1 0-1.3 1.2-1.1.5-2.4.7-3.6.2-1.3.7-2.6.7-3.9 0-2.2 1.3-4.2.8-6.5 1.6-1.4.3-3.3 1.3-5 .9-1.6.7-3.8.8-5.8 0-.2-.4-.7-.7-.7-.7-.1-1.4-.1-2.1 0-.2 0-.6.3-.6.5-.3 1.2-.6 2.4-.7 3.6-.3 3.5.3 7.1-.7 10.6-.6 2.4-.1 4.9-.7 7.4-.7 3.4.2 6.9-.9 9.7zM438.6 74c.4-3.9-1.2-7.4-.6-11 .1-.7-.2-1-1-.9h-1.4c-1-.1-1.3.3-1.2 1.1.5 2.2.9 4.4 1.3 6.5.3 1.7.8 3.4.9 5.2.1 1.8.5 3.7.7 5.5 0 .4-.2 1.1 0 1.3 1.3 1.1.4 2.4.7 3.6.3 1.3.5 2.6.7 3.9.3 2.4.5 4.7.7 7.1 0 .2.2.3.4.5.1-.2.3-.4.3-.5-.3-3.3.7-6.7-.7-10 .4-4.3-.6-8.4-.8-12.3zm3.5-2h.2c0-1.2.1-2.4 0-3.5-.2-1.7-.3-3.5-.8-5.1-.1-.5-1.1-.8-1.7-1.2-.1.5-.5 1.2-.3 1.4 1 1 .8 2.2.6 3.3-.2 1.3.7 2.3.8 3.6.1 2.1-.1 4.1.6 6.1.5 1.5 0 3.2.1 4.8.1 1.5.8 3 .6 4.5-.3 3.7.8 7.3.8 10.9 0 .2.2.4.3.5.2-.2.4-.4.4-.6-.1-2.3-.1-4.5-.6-6.8-.5-2.9 0-5.9-.2-8.9-.1-3-.5-6-.8-9zm11 11.2v9.6c0 .2.3.4.4.6.1-.2.2-.4.2-.5 0-2.8-.1-5.6 0-8.3.1-2.7 1-5.3.7-8.1-.4-3.2 1.2-6.4.7-9.7 0-.2 0-.5.1-.6 1.2-1 .4-2.2.6-3.3.1-.8-.4-.8-1.1-.8-.7 0-1.1.2-1 .9.6 5.4-1 10.7-.7 16.1.1 1.3.1 2.7.1 4.1z"/><path class="st1" d="M188.4 61.3l6.4 24.2-57.2 11.6"/><path class="st2" d="M188.4 61.3l30.9 18.2-26 .3"/><path class="st1" d="M406.8 85.8l17 68.3-96.8-23.3 79.8-45z"/><path class="st3" d="M288.9 23.9l66.3 138.3-235.1-52.8 168.8-85.5z"/><path class="st2" d="M406.8 85.8l-21.7 77.5H490l-83.2-77.5z"/><path class="st4" d="M390.9 110.1l-36.7 49.8-65.3-136 102 86.2z"/><path class="st5" d="M451 131.3zm.7 22c2.7 5.8 6.4 8.3 10.1 6.8.5-.2 1.3-.2 1.3-1.3 0-.8-.7-.9-1.2-1.1-3.6-1.5-6.7-4.4-9.4-8.3-1.1-1.6-1.5-3.2-1.1-5.5 3.7 7.2 8.2 9.4 11.7 5.9-.5-1.1-1.3-1.3-2-1.6-3.5-1.6-6.5-4.7-9.1-8.6-.9-1.4-1.2-2.8-.9-4.7 3.7 6.2 6.4 10.4 9.6 7.2-4-1.6-6.8-7.2-9.5-11.5v.1c.1.2 0 .4 0 .6 0-.2.1-.4 0-.6v-.1c-.4-1.3-.4-2.7-.2-4.3 2.9 4.6 4.4 8.3 7.1 6.1-1.7-1.6-2.9-4.5-4.4-6.4-1.1-1.4-2.1-3.5-3.2-3.8-1.3-.3-2 2.6-3.2 3.6-.9.7-1.8 1.4-2.7 2.2-.8.7-1.5 3.9-2.2 5.4 1.6 1.2 2.7-2.3 4.2-3.1 1.5-.8 2.6-2.4 3.6-4.2-.5 9.3-4.7 10.4-8.8 14.1 2 1.6 2.5 1.5 4.3.6 1.8-.9 3.1-3.2 4.2-6 .4 2.4 0 3.8-1 5.2-2.7 3.8-5.6 6.8-9.2 8.4-.6.3-1.7.3-1.6 1.6.1 1 1.1 1.1 1.8 1.2 4.2.7 7.5-1.6 9.7-7.6.4 2.8-.1 4.6-1.3 6.2-2.6 3.6-5.5 6.4-8.9 7.9-.6.2-1.5.2-1.4 1.5.1.9.9 1 1.4 1.1 4.2 1.1 7.4-1.4 10.1-7.2-.1 3.9-.2 7.1-.3 10.4h2.8c-.3-3.4-.3-6.7-.3-10.2zm-.7-22.6s0-.1 0 0c0-.1 0-.1 0 0v-.1.1z"/><path class="st4" d="M450.6 152.4l-61.5-50.3 14.4 61.2h24.3l22.8-10.9z"/><path class="st3" d="M137.8 81.1l16.1 68.3-99.1-25.6 83-42.7z"/><path class="st4" d="M473.4 125.5l-17.2 37.8h63.2l-46-37.8z"/><path class="st6" d="M313.1 73.2c-9.5 10.5-32.6-8.4-42 2.2-9.5 10.5 12.7 30.4 3.2 40.9s-31.6-9.4-41 1.2c-9.5 10.5 12.6 30.4 3.2 40.9"/><path class="st6" d="M315.8 78.9c-12.1 10.3-35.6-2.9-47.7 7.4-12.1 10.3 10.5 24.6-1.6 34.9-12.1 10.3-34.6-3.9-46.7 6.4s10.5 24.6-1.6 34.9"/><path class="st7" d="M137.9 81.1l145.8 69.7L99.1 145l38.8-63.9z"/><path class="st3" d="M177.9 96L95 138.7l76.8 24.6H206L177.9 96z"/><path class="st8" d="M87.2 94.5l110.4 68.2h-94.3"/><path class="st9" d="M371.1 90.1c2.7 4.3 5.6 9.8 9.5 11.5-3.2 3.3-5.8-.9-9.6-7.2-.3 1.9 0 3.3.9 4.7 2.6 3.9 5.6 6.9 9.1 8.6.7.3 1.5.4 2 1.6-3.5 3.5-8 1.3-11.7-5.9-.4 2.3 0 3.9 1.1 5.5 2.7 3.9 5.8 6.9 9.4 8.3.5.2 1.2.3 1.2 1.1 0 1.1-.8 1.1-1.3 1.3-3.6 1.5-7.4-1-10.1-6.8V124c0 1.5.5 3.1-1.3 3.2-1.8.1-1.6-1.6-1.5-3.2.1-3.6.2-7.2.4-11.5-2.7 5.9-5.9 8.4-10.1 7.2-.6-.1-1.4-.2-1.4-1.1-.1-1.3.8-1.3 1.4-1.5 3.4-1.4 6.3-4.3 8.9-7.9 1.2-1.7 1.8-3.4 1.4-6.2-2.2 6.1-5.5 8.3-9.7 7.6-.7-.1-1.7-.2-1.8-1.2-.1-1.3 1-1.3 1.6-1.6 3.5-1.6 6.5-4.5 9.2-8.4.9-1.4 1.3-2.8 1-5.2-1 2.8-2.4 5.1-4.2 6-1.8.9-2.3 1-4.3-.6 4.1-3.6 8.3-4.7 8.8-14.1-1 1.8-2.1 3.3-3.6 4.2-1.5.8-2.6 4.3-4.2 3.1.7-1.5 1.4-4.7 2.2-5.4.9-.7 1.8-1.4 2.7-2.2 1.2-1 1.9-4 3.2-3.6 1.2.3 2.2 2.5 3.2 3.8 1.5 1.9 2.7 4.8 4.4 6.4-2.7 2.2-4.3-1.5-7.2-6.1 0 1.8 0 3.1.4 4.4.1.4 0 .7 0 1.1 0-.4.2-.8 0-1.1z"/><path class="st5" d="M133.9 141.7zm0-.6v-.1.1zm1.4 18.6c-1.1-1.6-1.5-3.2-1.1-5.5 3.7 7.2 8.2 9.4 11.7 5.9-.4-1.1-1.3-1.3-2-1.6-3.5-1.6-6.5-4.7-9.1-8.6-.9-1.4-1.2-2.8-.9-4.7 3.7 6.2 6.4 10.4 9.6 7.2-4-1.6-6.8-7.2-9.5-11.5v.1c.1.2 0 .4 0 .6v-.7c-.4-1.3-.4-2.7-.2-4.3 2.9 4.6 4.4 8.3 7.2 6.1-1.7-1.6-2.9-4.5-4.4-6.4-1.1-1.4-2.1-3.5-3.2-3.8-1.3-.3-2 2.6-3.2 3.6-.9.7-1.8 1.4-2.7 2.2-.8.7-1.5 3.9-2.2 5.4 1.6 1.2 2.7-2.3 4.2-3.1 1.5-.8 2.6-2.4 3.6-4.2-.5 9.3-4.7 10.4-8.8 14 2 1.6 2.5 1.5 4.3.6 1.8-.9 3.1-3.2 4.2-6 .4 2.4 0 3.8-1 5.2-2.7 3.8-5.6 6.8-9.2 8.4-.6.3-1.7.3-1.6 1.6.1 1 1.1 1.1 1.8 1.2 4.2.7 7.5-1.6 9.7-7.6.4 2.8-.1 4.6-1.4 6.2-.8 1.1-1.7 2.2-2.6 3.2h9.9c-1.3-1-2.2-2.2-3.1-3.5z"/><path class="st3" d="M389.1 102.1l-116.5 60.1 4.3 1.1h126.5l-14.3-61.2z"/><path class="st9" d="M159.9 143.5c0-.1 0-.2.1-.3-.1.1-.1.2-.1.3z"/><path class="st9" d="M163 159.8c-2.5-1.5-3.3-3-2.4-5 8.1 6.6 17.9 8.7 25.7 5.5-1-1-2.8-1.1-4.3-1.4-7.8-1.5-14.2-4.3-20-7.9-2.1-1.3-2.6-2.6-2.1-4.4 8.2 5.7 14 9.6 21 6.6-8.7-1.5-14.9-6.6-20.9-10.6.2.2.1.4 0 .6 0 .1-.1.2-.1.3 0-.1 0-.2.1-.3.1-.2.1-.4 0-.6l-.1-.1c-.9-1.2-.9-2.5-.4-3.9 6.3 4.2 9.7 7.7 15.7 5.6-3.7-1.5-6.3-4.2-9.6-5.9-2.3-1.3-4.5-3.3-7.1-3.5-2.9-.3-4.4 2.4-7.1 3.4-2 .7-4 1.3-6 2-1.8.6-3.3 3.6-4.9 5 3.5 1.1 5.9-2.1 9.2-2.9 3.2-.8 5.6-2.2 7.9-3.8-1.1 8.6-10.4 9.6-19.4 13 4.4 1.5 5.5 1.4 9.5.6 3.9-.9 6.8-3 9.1-5.6.8 2.2-.1 3.5-2.1 4.8-5.9 3.5-12.3 6.3-20.1 7.7-1.3.2-3.7.2-3.5 1.4.2.9 2.5 1 4 1.1 9.3.6 16.5-1.4 21.3-7 .9 2.6-.3 4.2-3 5.7-2 1.2-4.1 2.2-6.3 3.2h8.7l.2-.2v.2h13.7c-2.2-1.1-4.5-2.3-6.7-3.6zm-3-17.2c0-.1 0 0 0 0z"/><path class="st8" d="M280.5 122l18.7 41.3h20.6L280.5 122z"/><path class="st9" d="M427.8 129.8zm0-.6v-.1.1zm.7 33.8v-11.2c2.7 5.8 6.4 8.3 10.1 6.8.5-.2 1.3-.2 1.3-1.3 0-.8-.7-.9-1.2-1.1-3.6-1.5-6.7-4.4-9.4-8.3-1.1-1.6-1.5-3.2-1.1-5.5 3.7 7.2 8.2 9.4 11.7 5.9-.5-1.1-1.3-1.3-2-1.6-3.5-1.6-6.5-4.7-9.1-8.6-.9-1.4-1.2-2.8-.9-4.7 3.7 6.2 6.4 10.4 9.6 7.1-4-1.6-6.8-7.2-9.5-11.5v.1c.1.2 0 .4 0 .6v-.7c-.4-1.3-.4-2.7-.2-4.3 2.9 4.6 4.4 8.3 7.2 6.1-1.7-1.6-2.9-4.5-4.4-6.4-1.1-1.4-2.1-3.5-3.2-3.8-1.3-.3-2 2.6-3.2 3.6-.9.7-1.8 1.4-2.7 2.2-.8.7-1.5 3.9-2.2 5.4 1.6 1.2 2.7-2.3 4.2-3.1 1.5-.8 2.6-2.4 3.6-4.2-.5 9.3-4.7 10.4-8.8 14.1 2 1.6 2.5 1.5 4.3.6 1.8-.9 3.1-3.2 4.2-6 .4 2.4 0 3.8-1 5.2-2.7 3.8-5.6 6.8-9.2 8.4-.6.3-1.7.3-1.6 1.6.1 1 1.1 1.1 1.8 1.2 4.2.7 7.5-1.6 9.7-7.6.4 2.8-.1 4.6-1.4 6.2-2.6 3.6-5.5 6.4-8.9 7.9-.6.2-1.5.2-1.4 1.5.1.9.9 1 1.4 1.1 4.2 1.1 7.4-1.4 10.1-7.2-.1 4.3-.3 7.9-.4 11.5v.3h2.8c-.2-.1-.2-.2-.2-.3z"/><path class="st5" d="M42.1 128.7zm0-.6c0-.1 0-.1 0 0 0-.1 0 0 0 0zm.7 33.8v-11.2c2.7 5.8 6.4 8.3 10.1 6.8.5-.2 1.3-.2 1.3-1.3 0-.8-.7-.9-1.2-1.1-3.6-1.5-6.7-4.4-9.4-8.3-1.1-1.6-1.5-3.2-1.1-5.5 3.7 7.2 8.2 9.4 11.7 5.9-.5-1.1-1.3-1.2-2-1.6-3.5-1.6-6.5-4.7-9.1-8.6-.9-1.4-1.2-2.8-.9-4.7 3.7 6.2 6.4 10.4 9.6 7.1-4-1.7-6.8-7.2-9.5-11.5.1.2 0 .4 0 .6 0-.2.1-.4 0-.6v-.1c-.4-1.3-.4-2.7-.2-4.2 2.9 4.6 4.4 8.3 7.2 6.1-1.7-1.6-2.9-4.5-4.4-6.4-1.1-1.4-2.1-3.5-3.2-3.8-1.3-.3-2 2.6-3.2 3.6-.9.7-1.8 1.4-2.7 2.2-.8.7-1.5 3.9-2.2 5.4 1.6 1.2 2.7-2.3 4.2-3.1 1.5-.8 2.6-2.4 3.6-4.2-.5 9.3-4.7 10.4-8.8 14.1 2 1.6 2.5 1.5 4.3.6 1.8-.9 3.1-3.2 4.2-6 .4 2.4 0 3.8-1 5.2-2.7 3.8-5.6 6.8-9.2 8.4-.6.3-1.7.3-1.6 1.6.1 1 1.1 1.1 1.8 1.2 4.2.7 7.5-1.6 9.7-7.6.4 2.8-.1 4.6-1.3 6.2-2.6 3.6-5.5 6.4-8.9 7.9-.6.2-1.5.2-1.4 1.5.1.9.9 1 1.4 1.1 4.2 1.1 7.4-1.4 10.1-7.2-.1 4.3-.3 7.9-.4 11.5v1.4h2.9c-.4-.4-.4-.9-.4-1.4z"/><path class="st3" d="M103.3 162.8L87.2 94.5 0 163.3h94.7l8.6-.5z"/><path class="st9" d="M28 138v.3c-.1 0-.1-.1 0-.3z"/><path class="st9" d="M29.4 156.1c-1.1-1.6-1.5-3.2-1.1-5.5 3.7 7.2 8.2 9.4 11.7 5.9-.4-1.1-1.3-1.3-2-1.6-3.5-1.6-6.5-4.7-9.1-8.6-.9-1.4-1.2-2.8-.9-4.7 3.7 6.2 6.4 10.4 9.6 7.1-4-1.6-6.8-7.2-9.5-11.5v.1c.1.2 0 .4 0 .6v-.7c-.4-1.3-.4-2.7-.2-4.3 2.9 4.6 4.4 8.3 7.2 6.1-1.7-1.6-2.9-4.5-4.4-6.4-1.1-1.4-2.1-3.5-3.2-3.8-1.3-.3-2 2.6-3.2 3.6-.9.7-1.8 1.4-2.7 2.2-.8.7-1.5 3.9-2.2 5.4 1.6 1.2 2.7-2.3 4.2-3.1 1.5-.8 2.6-2.4 3.6-4.2-.5 9.3-4.7 10.4-8.8 14.1 2 1.6 2.5 1.5 4.3.6 1.8-.9 3.1-3.2 4.2-6 .4 2.4 0 3.8-1 5.2-2.7 3.8-5.6 6.8-9.2 8.4-.6.3-1.7.3-1.6 1.6.1 1 1.1 1.1 1.8 1.2 4.2.7 7.5-1.6 9.7-7.6.4 2.8-.1 4.6-1.4 6.2-2.1 2.9-4.4 5.3-7 6.9h6.2c.7-1 1.4-2.2 2-3.6l-.1 3.6h2.5V160c.5 1.1 1.1 2.2 1.9 3.3h6.2c-3-1.6-5.4-4.1-7.5-7.2zM28 137.4v-.1.1z"/><path class="st5" d="M360.4 163.3H354c2.4.7 3.7.6 6.4 0zm12.8-8.6c0-.1 0-.2.1-.3-.1.1-.1.2-.1.3zm.1-.9c0-.1 0-.1 0 0 0-.1 0 0 0 0z"/><path class="st5" d="M375.3 162.1c-2.1-1.3-2.6-2.6-2.1-4.4 3.2 2.3 6.1 4.2 8.8 5.6h8.1c-6.7-2.1-11.8-6.2-16.8-9.6.2.2.1.4 0 .6 0 .1-.1.2-.1.3 0-.1 0-.2.1-.3.1-.2.1-.4 0-.6l-.1-.1c-.9-1.2-.9-2.5-.4-3.9 6.3 4.2 9.7 7.7 15.7 5.6-3.7-1.5-6.3-4.2-9.6-5.9-2.3-1.3-4.5-3.3-7.1-3.5-2.9-.3-4.4 2.4-7.1 3.4-2 .7-4 1.3-6 2-1.8.6-3.3 3.6-4.9 5 3.5 1.1 5.9-2.1 9.2-2.9 3.2-.8 5.6-2.2 7.9-3.8-1.1 8.6-10.4 9.6-19.4 13 .9.3 1.6.5 2.3.7h6.4l.7-.2c3.9-.9 6.8-3 9.1-5.6.8 2.2-.1 3.5-2.1 4.8-.5.3-1.1.6-1.7 1h10.9c-.5-.4-1.2-.8-1.8-1.2z"/><path class="st9" d="M345.3 154.5v-.1.1zm0 .6zm0 3.7c1 1.7 2 3.3 2.9 4.6h3.2c-2.3-2.5-4.2-5.9-6-8.9v.1c.1.2 0 .4 0 .6 0-.2.1-.4 0-.6v-.1c-.4-1.3-.4-2.7-.2-4.3 2.9 4.6 4.4 8.3 7.2 6.1-1.7-1.6-2.9-4.5-4.4-6.4-1.1-1.4-2.1-3.5-3.2-3.8-1.3-.3-2 2.6-3.2 3.6-.9.7-1.8 1.4-2.7 2.2-.8.7-1.5 3.9-2.2 5.4 1.6 1.2 2.7-2.3 4.2-3.1 1.5-.8 2.6-2.4 3.6-4.2-.5 8.7-4.2 10.2-8 13.3h5.1c1-1.2 1.9-2.8 2.6-4.7.3 2.1 0 3.5-.7 4.7h2.9c-1.1-1.3-1.4-2.7-1.1-4.5z"/><path class="st8" d="M289.2 161.4L177.9 96l16.4 67.3h54.5l40.4-1.9z"/><path class="st3" d="M280.5 122l-86.4 41.3h105.1L280.5 122z"/><path class="st5" d="M187.8 148.4c0-.1 0-.1 0 0 0-.1 0 0 0 0zm.5 12.1c1 1 2.2 1.9 3.3 2.8H202c-4.7-1.6-8.8-3.9-12.5-6.6-1.8-1.3-2.2-2.6-1.8-4.4 7 5.7 11.9 9.6 17.8 6.6-7.4-1.5-12.7-6.6-17.8-10.6.2.2.1.4 0 .6 0 .1-.1.2-.1.3 0-.1 0-.2.1-.3.1-.2.1-.4 0-.6l-.1-.1c-.7-1.2-.8-2.5-.3-3.9 5.3 4.2 8.3 7.7 13.3 5.6-3.2-1.5-5.4-4.2-8.1-5.9-2-1.3-3.8-3.3-6-3.5-2.4-.3-3.8 2.4-6.1 3.4-1.7.7-3.4 1.3-5.1 2-1.5.6-2.8 3.6-4.1 5 3 1.1 5-2.1 7.8-2.9 2.7-.8 4.8-2.2 6.7-3.8-.9 8.6-8.8 9.6-16.5 13 3.8 1.5 4.7 1.4 8 .6 3.3-.9 5.8-3 7.8-5.6.7 2.2-.1 3.5-1.8 4.8-3.7 2.6-7.7 4.8-12.2 6.4h10.7c1.1-.9 2.1-2 2.9-3.1.4 1.2.3 2.2-.1 3.1h3.6c-.1-.9-.1-1.8.2-2.9z"/><path class="st5" d="M187.8 149.3c0-.1 0-.2.1-.3-.1.1-.1.2-.1.3z"/><path class="st3" d="M473.4 125.5L390 163.3h66.3l17.1-37.8z"/><path class="st10" d="M288.9 23.9l-63 31.9s24.4-7.4 31.4-3.7c2.1 1.1 2.1 7.6 4.3 8.3 3.8 1.3 10.6-7 14.5-6.5 3 .4 6.5 7.2 9.5 7.4 3.1.2 7.6-6.1 10.7-6.2 2.9 0 7.3 6.2 10.2 5.6 2.6-.6 2.6-8.4 5.1-9.5 3.2-1.4 13.8 3.3 13.8 3.3l-36.5-30.6z"/><path class="st11" d="M293.8 150.6c1.5-.3 2.1-4.7 3.6-5.1 2.2-.7 8.6 3.2 8.6 3.2L280.5 122l-42.4 20.3s17-6.1 22.4-4.2c2.2.8 3.8 6.7 6.1 7.2 3 .6 7.9-5.6 11-5.4 4.9.3 11.4 11.6 16.2 10.7z"/><path class="st12" d="M432.8 110l-26-24.2-24 13.5s10.1-.6 13.1.7c1.7.8 3.6 4.8 5.4 5.2 3.3.8 9.8-3.9 13.2-3.6 5 .5 18.3 8.4 18.3 8.4z"/><path class="st11" d="M149.1 101.9c1.9-.7 2.8-5.3 4.8-5.9 4.6-1.5 15.4.2 15.4.2l-31.5-15L105.2 98s13-3.8 16.8-1.9c1.5.7 1.8 5.2 3.4 5.7 3.6 1.3 10.6-5.4 14.4-5 2.6.1 6.8 6 9.3 5.1z"/></svg>