<svg data-name="Layer 1" xmlns="http://www.w3.org/2000/svg" viewBox="0 0 290.77 34.8" fill="#2682A1"><title>name-banner</title><path d="M28.66 30.63a17.34 17.34 0 0 1-15.88 3.55A17.5 17.5 0 0 1 .62 22a17.43 17.43 0 0 1 0-9.22A17.5 17.5 0 0 1 12.79.62a17 17 0 0 1 4.6-.62 17.35 17.35 0 0 1 6 1.07 16.7 16.7 0 0 1 5.25 3.11L25.1 10a10.07 10.07 0 0 0-3.49-2.45 10.69 10.69 0 0 0-4.22-.86 10.37 10.37 0 0 0-4.17.84 11 11 0 0 0-3.4 2.29 10.7 10.7 0 0 0-2.3 3.4 10.4 10.4 0 0 0-.84 4.16 10.23 10.23 0 0 0 .84 4.14 10.83 10.83 0 0 0 5.7 5.68 10.37 10.37 0 0 0 4.17.84 10.69 10.69 0 0 0 4.22-.86 10.07 10.07 0 0 0 3.49-2.45zm10.62 3.45h-6.73V.47h6.73v13.45h13.43V.47h6.73v33.61h-6.73V20.65H39.28zm33.12 0h-6.73V.47h13.46a13.11 13.11 0 0 1 3.56.48 13.37 13.37 0 0 1 3.2 1.36 13.64 13.64 0 0 1 2.72 2.11 13.52 13.52 0 0 1 3.47 5.94 13.4 13.4 0 0 1 0 6.94 13.81 13.81 0 0 1-1.24 3.12 13.16 13.16 0 0 1-2 2.72 13.41 13.41 0 0 1-2.62 2.16L90 34.08h-7.15l-2.93-6.78H72.4zm0-26.88v13.45h6.73a6.48 6.48 0 0 0 2.6-.53 6.75 6.75 0 0 0 3.57-3.59 6.74 6.74 0 0 0 0-5.23 6.75 6.75 0 0 0-3.57-3.59 6.48 6.48 0 0 0-2.6-.53zm31.29 26.88H97V.47h6.73zM108 10.55a9.69 9.69 0 0 1 .8-3.91 10.24 10.24 0 0 1 5.37-5.37 9.69 9.69 0 0 1 3.83-.8h15.42V7.2H118a3.32 3.32 0 0 0-3.35 3.35 3.42 3.42 0 0 0 .26 1.32 3.29 3.29 0 0 0 1.78 1.79 3.33 3.33 0 0 0 1.31.26h6.73a9.9 9.9 0 0 1 3.93.79 10 10 0 0 1 5.37 5.37 10.18 10.18 0 0 1 0 7.84 10.13 10.13 0 0 1-2.16 3.2 10.26 10.26 0 0 1-3.21 2.17 9.77 9.77 0 0 1-3.93.8h-14.9v-6.74h14.93a3.35 3.35 0 1 0 0-6.7H118a9.69 9.69 0 0 1-3.91-.8 10.21 10.21 0 0 1-5.37-5.38 9.77 9.77 0 0 1-.72-3.92zm42.7 0a9.69 9.69 0 0 1 .8-3.91 10.24 10.24 0 0 1 5.37-5.37 9.69 9.69 0 0 1 3.91-.8h15.42V7.2h-15.42a3.32 3.32 0 0 0-3.35 3.35 3.42 3.42 0 0 0 .26 1.32 3.29 3.29 0 0 0 1.78 1.79 3.33 3.33 0 0 0 1.31.26h6.73a9.9 9.9 0 0 1 3.93.79 10 10 0 0 1 5.37 5.37 10.18 10.18 0 0 1 0 7.84 10.13 10.13 0 0 1-2.16 3.2 10.26 10.26 0 0 1-3.21 2.17 9.77 9.77 0 0 1-3.93.8h-14.93v-6.74h14.93a3.35 3.35 0 1 0 0-6.7h-6.73a9.69 9.69 0 0 1-3.91-.8 10.21 10.21 0 0 1-5.37-5.38 9.77 9.77 0 0 1-.8-3.92zm38.02 23.53H182V.47h6.73zm33.12 0h-7.2L201.68 12v22.08H195V.47h7.2l13 22.15V.47h6.73zm33.07-3.45A17.34 17.34 0 0 1 239 34.18 17.5 17.5 0 0 1 226.86 22a17.43 17.43 0 0 1 0-9.22A17.5 17.5 0 0 1 239 .62a17 17 0 0 1 4.63-.62 17.35 17.35 0 0 1 6 1.07 16.7 16.7 0 0 1 5.25 3.11L251.34 10a10.07 10.07 0 0 0-3.49-2.45 10.69 10.69 0 0 0-4.22-.86 10.37 10.37 0 0 0-4.17.84 11 11 0 0 0-3.4 2.29 10.7 10.7 0 0 0-2.3 3.4 10.4 10.4 0 0 0-.84 4.16 10.23 10.23 0 0 0 .84 4.14 10.83 10.83 0 0 0 5.7 5.68 10.37 10.37 0 0 0 4.17.84 10.69 10.69 0 0 0 4.22-.86 10.07 10.07 0 0 0 3.49-2.45zm35.86-13.22a17 17 0 0 1-.62 4.61 17.73 17.73 0 0 1-1.75 4.15 17.21 17.21 0 0 1-2.72 3.53 17.69 17.69 0 0 1-3.52 2.73 17.21 17.21 0 0 1-8.77 2.38 17 17 0 0 1-4.61-.62A17.5 17.5 0 0 1 256.63 22a17.43 17.43 0 0 1 0-9.22 17.17 17.17 0 0 1 1.76-4.15 17.69 17.69 0 0 1 2.73-3.52 17.21 17.21 0 0 1 3.53-2.72 17.73 17.73 0 0 1 4.14-1.72 17.43 17.43 0 0 1 9.22 0 17.35 17.35 0 0 1 12.13 12.13 17.1 17.1 0 0 1 .63 4.61zm-6.68 0a10.4 10.4 0 0 0-.84-4.16 10.65 10.65 0 0 0-5.68-5.68 10.71 10.71 0 0 0-8.33 0 11 11 0 0 0-3.4 2.29 10.7 10.7 0 0 0-2.3 3.4 10.4 10.4 0 0 0-.84 4.16 10.23 10.23 0 0 0 .84 4.14 10.83 10.83 0 0 0 5.7 5.68 10.71 10.71 0 0 0 8.33 0 10.7 10.7 0 0 0 3.4-2.3 11 11 0 0 0 2.29-3.39 10.23 10.23 0 0 0 .83-4.14z"/></svg>