<svg width="128" height="128" viewBox="0 0 128 128" xmlns="http://www.w3.org/2000/svg"><title>Artboard 2</title><g fill="#f1f1ee" fill-rule="evenodd"><path d="M43.799 55.987c.632.446 2.539 1.772 5.72 3.976 3.18 2.204 5.617 3.901 7.31 5.091.186.13.58.414 1.185.851a57.89 57.89 0 0 0 1.507 1.06c.4.27.883.573 1.45.907a8.431 8.431 0 0 0 1.605.753c.502.168.967.251 1.395.251h.056c.428 0 .893-.083 1.396-.251a8.443 8.443 0 0 0 1.604-.753c.567-.335 1.05-.637 1.45-.906.4-.27.903-.623 1.507-1.06.604-.438 1-.721 1.186-.852 1.71-1.19 6.064-4.213 13.057-9.068a13.26 13.26 0 0 0 3.404-3.431C88.543 51.215 89 49.81 89 48.342c0-1.228-.443-2.279-1.326-3.153-.884-.874-1.93-1.311-3.139-1.311h-41.07c-1.432 0-2.534.483-3.306 1.45-.772.968-1.158 2.177-1.158 3.628 0 1.172.512 2.441 1.535 3.808 1.022 1.368 2.11 2.442 3.264 3.223z"/><path d="M86.208 58.972c-6.1 4.13-10.732 7.338-13.894 9.626a65.32 65.32 0 0 1-2.581 1.827c-.66.438-1.539.884-2.637 1.34-1.097.455-2.12.683-3.068.683h-.057c-.948 0-1.972-.228-3.069-.683-1.097-.456-1.976-.902-2.636-1.34a65.609 65.609 0 0 1-2.581-1.827c-2.511-1.841-7.134-5.05-13.867-9.626-1.06-.706-2-1.516-2.818-2.427v22.153c0 1.228.437 2.278 1.311 3.153.875.874 1.926 1.311 3.153 1.311h41.07c1.228 0 2.279-.437 3.153-1.311.875-.875 1.312-1.925 1.312-3.153V56.545c-.8.892-1.73 1.702-2.79 2.427z"/></g></svg>