<svg data-name="Layer 1" xmlns="http://www.w3.org/2000/svg" viewBox="0 0 192.48 13.05" fill="#6A95A0"><title>title-banner</title><path d="M8.64 12.78H0V.18h8.64V2.7H2.52v2.52h4.14v2.52H2.52v2.51h6.12zm11.56 0h-3.06l-2.43-4.07-2.43 4.07h-3l3.87-6.3L9.24.18h3l2.43 4.07L17.14.18h3.06l-3.87 6.3zm3.69 0h-2.52V.18h5a4.92 4.92 0 0 1 1.34.18 5 5 0 0 1 1.2.51 5.11 5.11 0 0 1 1 .79 5.07 5.07 0 0 1 1.3 2.23 5 5 0 0 1-.22 3.29 5.06 5.06 0 0 1-2.68 2.69 4.89 4.89 0 0 1-2 .4h-2.42zm0-10.08v5h2.52a2.43 2.43 0 0 0 1-.2 2.53 2.53 0 0 0 1.32-1.3 2.53 2.53 0 0 0 0-2 2.53 2.53 0 0 0-1.34-1.3 2.43 2.43 0 0 0-1-.2zm17.67 10.08h-8.64V.18h8.64V2.7h-6.11v2.52h4.14v2.52h-4.14v2.51h6.12zm4.29 0h-2.52V.18h5a4.92 4.92 0 0 1 1.34.18 5 5 0 0 1 1.2.51 5.11 5.11 0 0 1 1 .79 5.07 5.07 0 0 1 1.3 2.23 5 5 0 0 1 0 2.6 5.18 5.18 0 0 1-.47 1.17 4.94 4.94 0 0 1-.74 1 5 5 0 0 1-1 .81l1.4 3.3h-2.59l-1.1-2.54h-2.82zm0-10.08v5h2.52a2.43 2.43 0 0 0 1-.2 2.53 2.53 0 0 0 1.32-1.3 2.53 2.53 0 0 0 0-2 2.53 2.53 0 0 0-1.34-1.3 2.43 2.43 0 0 0-1-.2zm11.74 10.08h-2.53V.18h2.52zm10.97 0h-8.64V.18h8.64V2.7h-6.11v2.52h4.14v2.52h-4.14v2.51h6.12zm11.85 0h-2.7l-4.86-8.3v8.3h-2.52V.18H73l4.86 8.31V.18h2.52zm12.4-1.29a6.5 6.5 0 0 1-6 1.33 6.56 6.56 0 0 1-4.51-4.56 6.52 6.52 0 0 1 0-3.46A6.56 6.56 0 0 1 86.86.23 6.36 6.36 0 0 1 88.58 0a6.51 6.51 0 0 1 2.26.4 6.26 6.26 0 0 1 2 1.16l-1.34 2.2a3.78 3.78 0 0 0-1.31-.92 4 4 0 0 0-1.58-.32 3.89 3.89 0 0 0-1.61.32 4.12 4.12 0 0 0-1.27.86 4 4 0 0 0-.85 1.3 3.9 3.9 0 0 0-.32 1.56 3.84 3.84 0 0 0 .32 1.55 4.06 4.06 0 0 0 2.12 2.1 3.89 3.89 0 0 0 1.56.32 4 4 0 0 0 1.58-.32 3.78 3.78 0 0 0 1.31-.92zm10.1 1.29h-8.64V.18h8.64V2.7h-6.12v2.52h4.14v2.52h-4.14v2.51h6.12zm16.9-6.3a6.2 6.2 0 0 1-.81 3.17 6.49 6.49 0 0 1-1 1.27 6.25 6.25 0 0 1-4.46 1.85h-3.8V.18h3.8a6.21 6.21 0 0 1 1.67.22A6.27 6.27 0 0 1 118 2a6.49 6.49 0 0 1 1 1.27 6.2 6.2 0 0 1 .86 3.18zm-2.52 0A3.68 3.68 0 0 0 117 5a3.8 3.8 0 0 0-.81-1.2A3.85 3.85 0 0 0 115 3a3.67 3.67 0 0 0-1.47-.3h-1.26v7.56h1.26A3.71 3.71 0 0 0 115 10a3.76 3.76 0 0 0 2-2 3.71 3.71 0 0 0 .29-1.52zm12.83 6.3h-8.64V.18h8.64V2.7H124v2.52h4.14v2.52H124v2.51h6.12zM131 4a3.63 3.63 0 0 1 .3-1.47 3.84 3.84 0 0 1 2-2 3.63 3.63 0 0 1 1.47-.3h5.78V2.7h-5.78a1.25 1.25 0 0 0-1.24 1.3 1.28 1.28 0 0 0 .1.5 1.24 1.24 0 0 0 .67.67 1.25 1.25 0 0 0 .49.1h2.52a3.72 3.72 0 0 1 1.47.29 3.76 3.76 0 0 1 2 2 3.81 3.81 0 0 1 0 2.94 3.78 3.78 0 0 1-.81 1.2 3.84 3.84 0 0 1-1.2.81 3.67 3.67 0 0 1-1.47.3h-5.6v-2.55h5.6a1.26 1.26 0 1 0 0-2.51h-2.52a3.63 3.63 0 0 1-1.47-.3 3.83 3.83 0 0 1-2-2A3.66 3.66 0 0 1 131 4zm14.27 8.78h-2.52V.18h2.52zm12.36-1.28a6.48 6.48 0 0 1-4.21 1.55 6.37 6.37 0 0 1-1.73-.23 6.47 6.47 0 0 1-1.55-.66 6.72 6.72 0 0 1-1.32-1 6.35 6.35 0 0 1-1-1.32 6.59 6.59 0 0 1-.65-1.56 6.38 6.38 0 0 1-.23-1.73 6.28 6.28 0 0 1 .23-1.72 6.63 6.63 0 0 1 .65-1.55 6.35 6.35 0 0 1 1-1.32 6.54 6.54 0 0 1 2.87-1.69 6.53 6.53 0 0 1 4 .17 6.47 6.47 0 0 1 2 1.15l-1.32 2.2a4.23 4.23 0 0 0-1.37-.92 3.94 3.94 0 0 0-3.12 0 4.14 4.14 0 0 0-1.27.86 4 4 0 0 0-.87 1.27 3.84 3.84 0 0 0-.32 1.55 3.89 3.89 0 0 0 .32 1.56 4.06 4.06 0 0 0 2.13 2.14 3.84 3.84 0 0 0 1.55.32 3.72 3.72 0 0 0 .92-.11 4.24 4.24 0 0 0 .85-.32V6.53h2.43zm12.03 1.28H167l-4.86-8.3v8.3h-2.52V.18h2.7l4.86 8.31V.18h2.52zm10.97 0H172V.18h8.64V2.7h-6.12v2.52h4.14v2.52h-4.14v2.51h6.12zm4.29 0h-2.52V.18h5a4.92 4.92 0 0 1 1.34.18 5 5 0 0 1 1.2.51 5.09 5.09 0 0 1 2.32 3 5 5 0 0 1 0 2.6 5.18 5.18 0 0 1-.47 1.17 4.9 4.9 0 0 1-.74 1 5 5 0 0 1-1 .81l1.4 3.3h-2.68l-1.1-2.54h-2.82zm0-10.08v5h2.52a2.43 2.43 0 0 0 1-.2 2.55 2.55 0 0 0 .8-.54 2.52 2.52 0 0 0 .54-.8 2.52 2.52 0 0 0 0-2 2.52 2.52 0 0 0-.54-.8 2.55 2.55 0 0 0-.8-.54 2.43 2.43 0 0 0-1-.2z"/></svg>